<svg xmlns="http://www.w3.org/2000/svg"  viewBox="0 0 72 72" width="64px" height="64px"><path d="M 29.5 14 C 15.125 14 14 15.125 14 29.5 L 14 42.5 C 14 56.875 15.125 58 29.5 58 L 42.5 58 C 56.875 58 58 56.875 58 42.5 L 58 29.5 C 58 15.125 56.875 14 42.5 14 L 29.5 14 z M 26 22 L 46 22 C 49.71 22 50 22.29 50 26 L 50 46 C 50 49.71 49.71 50 46 50 L 26 50 C 22.29 50 22 49.71 22 46 L 22 26 C 22 22.29 22.29 22 26 22 z M 28.632812 24.046875 L 30.513672 29.550781 L 30.513672 33.21875 L 31.765625 33.21875 L 31.765625 29.550781 L 33.646484 24.046875 L 32.394531 24.046875 L 31.140625 27.714844 L 29.886719 24.046875 L 28.632812 24.046875 z M 35.523438 26.443359 C 34.857438 26.443359 34.529047 26.546094 34.123047 26.871094 C 33.733047 27.194094 33.624391 27.442484 33.650391 28.271484 L 33.650391 31.314453 C 33.650391 31.920453 33.752906 32.320781 34.128906 32.675781 C 34.518906 33.028781 34.887438 33.140625 35.523438 33.140625 C 36.188437 33.140625 36.550781 33.029781 36.925781 32.675781 C 37.316781 32.335781 37.394531 31.922453 37.394531 31.314453 L 37.394531 28.269531 C 37.394531 27.733531 37.297875 27.223766 36.921875 26.884766 C 36.530875 26.533766 36.129437 26.443359 35.523438 26.443359 z M 38.722656 26.443359 L 38.722656 31.923828 C 38.722656 32.515828 39.333703 33.140625 39.970703 33.140625 C 40.606703 33.140625 40.94375 32.82825 41.21875 32.53125 L 41.21875 33.140625 L 42.466797 33.140625 L 42.466797 26.443359 L 41.21875 26.443359 L 41.21875 31.314453 C 41.21175 31.730453 40.70875 31.923828 40.59375 31.923828 C 40.46375 31.923828 39.970703 31.897453 39.970703 31.314453 L 39.970703 26.443359 L 38.722656 26.443359 z M 35.523438 27.662109 C 35.708438 27.662109 36.140625 27.662625 36.140625 28.265625 L 36.140625 31.273438 C 36.140625 31.856437 35.723438 31.876953 35.523438 31.876953 C 35.338437 31.876953 34.90625 31.867438 34.90625 31.273438 L 34.90625 28.265625 C 34.90625 27.774625 35.173438 27.662109 35.523438 27.662109 z M 26.599609 35.996094 C 25.906609 35.996094 25.242953 36.272672 24.751953 36.763672 C 24.261953 37.254672 23.984375 37.920234 23.984375 38.615234 L 23.984375 45.40625 C 23.984375 46.10125 24.260953 46.766812 24.751953 47.257812 C 25.241953 47.748812 25.905609 48.025391 26.599609 48.025391 L 45.388672 48.025391 C 46.081672 48.025391 46.747281 47.748813 47.238281 47.257812 C 47.728281 46.766813 48.003906 46.10125 48.003906 45.40625 L 48.003906 38.615234 C 48.003906 37.921234 47.729281 37.255672 47.238281 36.763672 C 46.748281 36.272672 46.082672 35.996094 45.388672 35.996094 L 26.599609 35.996094 z M 27.21875 37.396484 L 30.974609 37.396484 L 30.974609 38.650391 L 29.722656 38.650391 L 29.722656 46.173828 L 28.470703 46.173828 L 28.470703 38.650391 L 27.21875 38.650391 L 27.21875 37.396484 z M 36.607422 37.396484 L 37.859375 37.396484 L 37.859375 39.904297 C 38.003375 39.678297 38.218875 39.502391 38.421875 39.400391 C 38.624875 39.297391 38.82825 39.240234 39.03125 39.240234 C 39.43725 39.240234 39.755656 39.383156 39.972656 39.660156 C 40.190656 39.936156 40.361328 40.304703 40.361328 40.845703 L 40.361328 44.607422 L 40.363281 44.607422 C 40.363281 45.072422 40.205953 45.360375 40.001953 45.609375 C 39.800953 45.855375 39.500328 46.169828 39.111328 46.173828 C 38.453328 46.180828 38.101375 45.829875 37.859375 45.546875 L 37.859375 46.173828 L 36.607422 46.173828 L 36.607422 37.396484 z M 42.988281 39.277344 C 43.583281 39.277344 44.000406 39.404281 44.316406 39.738281 C 44.638406 40.072281 44.742188 40.459937 44.742188 41.085938 L 44.742188 43.039062 L 42.240234 43.039062 L 42.240234 44.009766 C 42.240234 44.358766 42.287 44.583844 42.375 44.714844 C 42.461 44.858844 42.635234 44.923875 42.865234 44.921875 C 43.119234 44.919875 43.281188 44.867953 43.367188 44.751953 C 43.455188 44.648953 43.490234 44.358469 43.490234 43.980469 L 43.490234 43.667969 L 44.742188 43.667969 L 44.742188 44.037109 C 44.742188 44.722109 44.687562 45.229453 44.351562 45.564453 C 44.033563 45.913453 43.537672 46.076172 42.888672 46.076172 C 42.293672 46.076172 41.829141 45.900109 41.494141 45.537109 C 41.162141 45.174109 40.988281 44.679109 40.988281 44.037109 L 40.988281 41.085938 C 40.988281 40.518937 41.187734 40.099609 41.552734 39.724609 C 41.844734 39.424609 42.394281 39.277344 42.988281 39.277344 z M 31.599609 39.279297 L 32.851562 39.279297 L 32.851562 44.294922 C 32.851562 44.438922 33.020516 44.925875 33.478516 44.921875 C 33.987516 44.916875 33.990516 44.440922 34.103516 44.294922 L 34.103516 39.279297 L 35.355469 39.279297 L 35.355469 46.175781 L 34.103516 46.175781 L 34.103516 45.548828 C 33.871516 45.823828 33.751234 45.907109 33.490234 46.037109 C 33.229234 46.183109 32.967703 46.175781 32.720703 46.175781 C 32.417703 46.175781 32.073109 45.901312 31.912109 45.695312 C 31.767109 45.507312 31.599609 45.313875 31.599609 44.921875 L 31.599609 39.279297 z M 38.484375 40.21875 C 38.138375 40.21875 37.865375 40.530703 37.859375 40.845703 L 37.859375 44.607422 C 37.865375 44.788422 38.138375 44.921875 38.484375 44.921875 C 38.830375 44.921875 39.111328 44.655594 39.111328 44.308594 L 39.111328 41.158203 C 39.111328 40.531203 38.830375 40.21875 38.484375 40.21875 z M 42.867188 40.53125 C 42.521188 40.53125 42.246234 40.821203 42.240234 41.158203 L 42.240234 41.785156 L 43.492188 41.785156 L 43.492188 41.158203 C 43.492188 40.773203 43.212187 40.53125 42.867188 40.53125 z"/></svg>